<svg xmlns="http://www.w3.org/2000/svg" viewBox="0 0 80 80" width="80" height="80" fill="#FFFEFA" stroke="none">
  <path d="M40 28 C30 18 18 22 22 34 C12 36 12 50 22 50 C20 60 32 64 38 56 C40 64 52 64 54 56 C62 60 70 52 64 44 C72 38 68 26 58 28 C56 18 42 16 40 28 Z"/>
  <line x1="40" y1="58" x2="40" y2="74" stroke="#FFFEFA" stroke-width="1.4"/>
  <path d="M40 70 C36 68 34 64 35 60" stroke="#FFFEFA" stroke-width="1.2" fill="none"/>
  <path d="M40 70 C44 68 46 64 45 60" stroke="#FFFEFA" stroke-width="1.2" fill="none"/>
</svg>
