<?xml version="1.0" encoding="UTF-8"?>
<svg version="1.1" xmlns="http://www.w3.org/2000/svg" width="4500" height="4500">
<path d="M0 0 C0.66 0.33 1.32 0.66 2 1 C1.3709375 1.49628906 0.741875 1.99257813 0.09375 2.50390625 C-1.70421334 3.93090426 -3.49544675 5.36640713 -5.28125 6.80859375 C-6.87086624 8.08987925 -8.47061467 9.35910709 -10.09375 10.59765625 C-23.98477965 21.72755911 -32.34866175 40.13717709 -39.6875 55.9375 C-48.62023927 75.12945315 -48.62023927 75.12945315 -57 80 C-60.17073421 81.096581 -63.37235404 81.98952986 -66.6015625 82.8984375 C-86.08724444 89.21448613 -100.65777249 107.35170685 -109.92578125 124.8203125 C-123.097794 150.72949852 -124.18519743 178.53469965 -116.0546875 206.21875 C-113.88565237 212.27017575 -110.75799607 218.10065181 -104.8359375 221.09375 C-102.92397496 221.82340355 -100.96384062 222.42439154 -99 223 C-99.44874614 217.68590102 -100.24057656 213.0583424 -102 208 C-105.30546584 188.59219345 -102.24735682 170.39908764 -91.59765625 153.81640625 C-85.39661244 145.74606227 -75.75717287 141.09763326 -66 139 C-62.40277516 138.61913282 -58.86449767 138.57792261 -55.25 138.625 C-53.89068359 138.60759766 -53.89068359 138.60759766 -52.50390625 138.58984375 C-47.25245857 138.61284279 -43.52864398 139.0584976 -39 142 C-35.74507429 145.34058165 -35 146.22812981 -35 151 C-39.71320985 150.56156187 -43.81726749 149.44122435 -48.3125 147.9375 C-57.32662687 145.10832387 -65.37590228 144.75615578 -74 149 C-83.59260473 154.82350371 -90.6327259 164.28594603 -94 175 C-94.33931664 178.37777525 -94.33931664 178.37777525 -94 181 C-91.33844996 182.33077502 -89.77746894 181.87975559 -86.8125 181.5625 C-72.97223707 180.40786182 -59.00359912 179.69913353 -45.51953125 183.375 C-41.22867974 184.43939727 -38.16441147 184.08220574 -34.2265625 182.11328125 C-26.64147873 177.20619644 -21.40710992 169.08331399 -16 162 C-10.70067535 162.71294659 -7.60802196 164.0401959 -4 168 C-2.82663277 169.60523156 -1.68269166 171.23221892 -0.5625 172.875 C9.24508089 187.19449175 23.67390729 193.44859492 40 198 C40.87398437 198.24621094 41.74796875 198.49242187 42.6484375 198.74609375 C62.35737436 203.25365817 82.18431764 199.03053591 100.76953125 192.33764648 C109.18427433 189.36140923 109.18427433 189.36140923 114 190 C116.32502881 192.32502881 116.3671045 192.94658265 116.5 196.125 C116.29236945 203.00959178 112.16271393 206.65888037 107.6796875 211.51171875 C98.06455902 222.26057134 91.15562854 234.52968548 84 247 C83.5054834 247.85384277 83.0109668 248.70768555 82.50146484 249.58740234 C65.88779212 278.33886386 53.98429633 308.4819842 53.796875 342.15234375 C53.78986069 343.00156906 53.78284637 343.85079437 53.77561951 344.72575378 C53.75817353 347.46305693 53.75176365 350.20014323 53.75 352.9375 C53.74932526 353.87551453 53.74865051 354.81352905 53.74795532 355.77996826 C53.83135265 428.87811542 81.04460283 488.42095975 129.7734375 541.55859375 C131.69133207 543.66154833 133.57376045 545.78669156 135.4375 547.9375 C139.25120308 552.32281197 143.18510293 556.59569186 147.125 560.8671875 C148.97756494 562.87786786 150.80559584 564.90389771 152.625 566.9453125 C170.0208698 586.36034576 191.40605609 607.21743788 218 612 C219.02867187 612.19078125 220.05734375 612.3815625 221.1171875 612.578125 C223.01565906 612.92330165 224.91652508 613.25577371 226.8203125 613.5703125 C229 614 229 614 231 615 C231 615.66 231 616.32 231 617 C230.01902344 617.23074219 229.03804687 617.46148438 228.02734375 617.69921875 C202.92918453 622.8165684 202.92918453 622.8165684 183 637 C178.70201389 644.38900352 177.13522832 652.10186892 178.5625 660.5625 C180.40013105 667.43840425 184.17729398 673.09769456 190.0625 677.125 C192.77054387 678.63984447 193.76168442 679.01014109 196.9375 678.875 C198.95294588 678.17198385 198.95294588 678.17198385 200 677 C200.4131991 673.85217413 200.77127469 670.7069974 201.07421875 667.546875 C201.40457806 664.66882953 201.68014219 662.45641602 203.36328125 660.0546875 C206.44329056 658.06995596 209.54514427 658.40758923 213 659 C215.34835842 659.81194697 217.6809859 660.67018911 220 661.5625 C225.73162232 663.7179819 229.11708825 664.78588392 235 663 C239.08018781 660.91827153 241.65506992 658.32757322 244.5625 654.875 C247.17599621 651.8049979 248.90941327 649.79816326 253 649 C258.8179952 648.53825435 261.87668128 648.94932602 267 652 C268.95774478 653.87898493 270.72626979 655.71480724 272.5 657.75 C273.5500755 658.92120606 274.60088723 660.09175236 275.65234375 661.26171875 C276.19745605 661.87321777 276.74256836 662.4847168 277.30419922 663.11474609 C280.17651527 666.30795435 283.12298167 669.43128271 286.0625 672.5625 C292.08447556 679.00313761 298.06190914 685.48190957 304 692 C304.77988281 692.85078125 305.55976563 693.7015625 306.36328125 694.578125 C311.00600906 699.67790892 315.41284706 704.92004706 319.75 710.28125 C321.93501569 712.92147729 324.19171391 715.4672972 326.5 718 C331.20458343 723.17504177 335.6061739 728.56067562 340 734 C341.03443444 735.26621503 342.06963622 736.53180343 343.10546875 737.796875 C349.37336032 745.46072524 355.53806015 753.18200605 361.52734375 761.06640625 C363.25158513 763.3303306 364.98517594 765.58696445 366.71875 767.84375 C384.77619216 791.38895998 401.8606803 815.60232057 418.30493164 840.29956055 C420.06168882 842.9362825 421.82460039 845.56881574 423.58789062 848.20117188 C445.63082115 881.20353065 464.87555237 915.71536107 483 951 C483.47904785 951.92941406 483.9580957 952.85882812 484.45166016 953.81640625 C491.37025771 967.28367296 497.7940683 980.94184341 504.00878906 994.74365234 C504.65293788 996.17417928 505.29714436 997.60468024 505.94140625 999.03515625 C506.26672333 999.75749451 506.59204041 1000.47983276 506.92721558 1001.22406006 C509.40250403 1006.70727777 511.92406392 1012.16794845 514.46484375 1017.62109375 C527.77264822 1046.19168591 540.74878808 1074.76471307 550.86621094 1104.65087891 C551.60848952 1106.84350975 552.3588402 1109.03342844 553.11816406 1111.22021484 C565.11053401 1145.8184663 572.83076076 1181.43828646 578.46038818 1217.56036377 C579.55723832 1224.55199248 580.68171633 1231.53924282 581.80078125 1238.52734375 C583.2974578 1247.87770901 584.79124604 1257.22849448 586.26953125 1266.58178711 C586.5034196 1268.0598217 586.73732135 1269.53785416 586.97123718 1271.0158844 C587.40716808 1273.77058691 587.84152321 1276.52553143 588.27497864 1279.28062439 C589.30257717 1285.77460232 590.38040769 1292.24784734 591.63310242 1298.70254517 C592.13629455 1301.853455 592.14146094 1304.8171289 592 1308 C566.14947331 1323.07060884 538.93195205 1335.35006113 511 1346 C510.36060486 1346.24385437 509.72120972 1346.48770874 509.06243896 1346.73895264 C446.74421076 1370.40613341 378.93459562 1384.97264966 312.14453125 1385.203125 C310.76177439 1385.2101491 309.37901784 1385.2172359 307.9962616 1385.22438049 C303.60166962 1385.24377513 299.20713046 1385.24881482 294.8125 1385.25 C294.06323242 1385.25044186 293.31396484 1385.25088371 292.54199219 1385.25133896 C269.56425642 1385.25844346 246.82508928 1384.88337645 224 1382 C222.56743618 1381.82621966 221.13481744 1381.65289156 219.70214844 1381.47998047 C154.77371314 1373.53917028 91.70684601 1355.13343695 32.58056641 1327.21240234 C30.23206526 1326.10902896 27.87519382 1325.02785621 25.51171875 1323.95703125 C-7.61972251 1308.85832853 -40.29439834 1289.41184788 -69.234375 1267.34179688 C-71.13601494 1265.89663467 -73.05090287 1264.47045072 -74.96875 1263.046875 C-87.73885383 1253.55549914 -100.24212004 1243.80314856 -112.31738281 1233.43994141 C-114.09902168 1231.91525974 -115.8887341 1230.40044495 -117.6796875 1228.88671875 C-128.46294925 1219.74802492 -128.46294925 1219.74802492 -133.33374023 1214.6652832 C-134.952272 1213.04770003 -136.62981181 1211.58375887 -138.37890625 1210.109375 C-143.94799111 1205.26638763 -149.12098623 1200.02855589 -154.32739258 1194.80297852 C-156.058947 1193.066064 -157.79578359 1191.33456111 -159.53320312 1189.60351562 C-164.70814304 1184.43168075 -169.81107822 1179.2545747 -174.5612793 1173.68383789 C-176.75741672 1171.11354096 -179.07076131 1168.66126976 -181.375 1166.1875 C-185.59398254 1161.61567543 -189.61147468 1156.92745156 -193.51171875 1152.078125 C-195.37060486 1149.77859241 -197.24614776 1147.50086452 -199.14453125 1145.234375 C-231.72536555 1106.25647557 -259.68684813 1063.10917888 -283 1018 C-283.31710938 1017.38769531 -283.63421875 1016.77539062 -283.9609375 1016.14453125 C-320.86192701 944.82206536 -346.46568505 867.81885635 -369 704 C-369.04236786 703.24777161 -369.08473572 702.49554321 -369.12838745 701.72052002 C-369.96874001 686.43692372 -370.20213589 671.17994111 -370.1875 655.875 C-370.18689575 654.69646454 -370.1862915 653.51792908 -370.18566895 652.30368042 C-370.15777926 632.14029039 -369.67879641 612.09532696 -368 592 C-367.93683594 591.23997681 -367.87367188 590.47995361 -367.80859375 589.69689941 C-362.50302448 526.74202876 -350.51603343 464.32218409 -330.17333984 404.45654297 C-329.04200243 401.12373499 -327.93503671 397.78367908 -326.83203125 394.44140625 C-318.32232493 368.94532336 -307.9141746 344.20486541 -296.38916016 319.93408203 C-295.06069434 317.12819413 -293.75213815 314.31391748 -292.44921875 311.49609375 C-286.49668725 298.69514112 -279.90441942 286.31046101 -273 274 C-272.50209961 273.10748535 -272.00419922 272.2149707 -271.49121094 271.29541016 C-244.93100705 223.77254372 -212.75332197 178.81675263 -175.66796875 138.9140625 C-173.67003994 136.73184451 -171.72603454 134.52934482 -169.79589844 132.28881836 C-166.21274713 128.18898399 -162.45285509 124.307825 -158.59765625 120.46484375 C-157.91626083 119.78249161 -157.23486542 119.10013947 -156.53282166 118.39710999 C-155.10294259 116.96655563 -153.67182089 115.53724233 -152.23950195 114.10913086 C-150.06802289 111.94300926 -147.90193675 109.77159826 -145.73632812 107.59960938 C-144.33625798 106.20020013 -142.93587762 104.80110116 -141.53515625 103.40234375 C-140.89844498 102.76360825 -140.2617337 102.12487274 -139.60572815 101.46678162 C-135.77480648 97.65541678 -131.82994005 94.0282352 -127.73724365 90.49913025 C-125.5159046 88.58225661 -123.35293869 86.60461295 -121.1875 84.625 C-115.93862774 79.89384655 -110.49437924 75.44123215 -105 71 C-103.76879913 69.98917233 -102.53837382 68.97739951 -101.30859375 67.96484375 C-74.49748098 45.93691859 -45.90999265 26.55781864 -16 9 C-15.2044873 8.53158691 -14.40897461 8.06317383 -13.58935547 7.58056641 C-11.35722646 6.27217322 -9.11809747 4.97697911 -6.875 3.6875 C-6.205896 3.2961084 -5.53679199 2.9047168 -4.84741211 2.50146484 C-3.26583105 1.60442387 -1.63642914 0.7925786 0 0 Z " fill="#FEFEFE" transform="translate(2825,808)"/>
<path d="M0 0 C55.11 0 110.22 0 167 0 C174.86621315 15.7324263 174.86621315 15.7324263 177.515625 21.765625 C177.95575172 22.76271736 177.95575172 22.76271736 178.4047699 23.779953 C179.03103776 25.199194 179.65589481 26.61905832 180.27938843 28.03952026 C182.00239523 31.96351184 183.73779797 35.88201828 185.47265625 39.80078125 C185.83724442 40.62477921 186.20183258 41.44877716 186.57746887 42.29774475 C190.8922506 52.03593848 195.2894192 61.73671789 199.6875 71.4375 C201.29839679 74.99208797 202.90904597 78.54678807 204.51953125 82.1015625 C204.90614929 82.95486649 205.29276733 83.80817047 205.69110107 84.68733215 C210.65807256 95.65448104 215.57762772 106.64274519 220.49365234 117.6328125 C223.05595548 123.36041134 225.62141279 129.08659567 228.1875 134.8125 C228.71134277 135.98143799 229.23518555 137.15037598 229.77490234 138.35473633 C234.50570613 148.90806102 239.2525496 159.4541558 244 170 C251.85923034 187.45825901 259.69684721 204.92605847 267.52246094 222.39941406 C274.33362785 237.60624496 281.16010834 252.80606943 288 268 C295.85923034 285.45825901 303.69684721 302.92605847 311.52246094 320.39941406 C318.33362785 335.60624496 325.16010834 350.80606943 332 366 C339.85923034 383.45825901 347.69684721 400.92605847 355.52246094 418.39941406 C362.33362785 433.60624496 369.16010834 448.80606943 376 464 C383.85923034 481.45825901 391.69684721 498.92605847 399.52246094 516.39941406 C406.33362785 531.60624496 413.16010834 546.80606943 420 562 C427.85923034 579.45825901 435.69684721 596.92605847 443.52246094 614.39941406 C450.33362785 629.60624496 457.16010834 644.80606943 464 660 C471.85923034 677.45825901 479.69684721 694.92605847 487.52246094 712.39941406 C494.33362785 727.60624496 501.16010834 742.80606943 508 758 C515.85923034 775.45825901 523.69684721 792.92605847 531.52246094 810.39941406 C538.33362785 825.60624496 545.16010834 840.80606943 552 856 C559.85923034 873.45825901 567.69684721 890.92605847 575.52246094 908.39941406 C582.33362785 923.60624496 589.16010834 938.80606943 596 954 C602.83262651 969.17779198 609.65176638 984.36150839 616.45556641 999.55224609 C619.1357469 1005.53541223 621.81797259 1011.5176616 624.5 1017.5 C627.69236635 1024.62066392 630.88441967 1031.74146683 634.07421875 1038.86328125 C640.3689349 1052.91512236 646.67946559 1066.95975408 653 1081 C659.81351641 1096.13534139 666.61368716 1111.2765448 673.3984375 1126.42480469 C676.0727877 1132.3948023 678.74904197 1138.36394628 681.42514038 1144.3331604 C682.82125905 1147.4473352 684.21726601 1150.56156008 685.61328125 1153.67578125 C686.07516846 1154.70614502 686.53705566 1155.73650879 687.01293945 1156.7980957 C687.33866943 1157.52472412 687.66439941 1158.25135254 688 1159 C693.146395 1148.92784224 697.98745266 1138.77168667 702.52539062 1128.41162109 C704.24712615 1124.48251022 705.9829254 1120.55962124 707.71875 1116.63671875 C708.07412842 1115.83317963 708.42950684 1115.0296405 708.7956543 1114.20175171 C712.45901485 1105.93496904 716.22378414 1097.71568599 720 1089.5 C725.41903774 1077.70378109 730.74775384 1065.8714099 736 1054 C741.57576496 1041.39735548 747.24876522 1028.84376011 753.00100708 1016.32073975 C758.06458197 1005.29221899 763.0301138 994.22383565 767.9375 983.125 C773.70155179 970.08941869 779.59581173 957.11964187 785.57147217 944.17980957 C791.17426144 932.04155076 796.6509395 919.85244685 802.05712891 907.62548828 C806.95757819 896.54589755 811.94317063 885.50906026 817 874.5 C822.4182454 862.70341006 827.74774819 850.87142266 833 839 C838.57546308 826.39803779 844.24845984 813.84527225 850 801.32275391 C855.08285469 790.25116467 860.07096532 779.1408699 865 768 C870.57546308 755.39803779 876.24845984 742.84527225 882 730.32275391 C887.08285469 719.25116467 892.07096532 708.1408699 897 697 C902.57546308 684.39803779 908.24845984 671.84527225 914 659.32275391 C919.08285469 648.25116467 924.07096532 637.1408699 929 626 C934.57546308 613.39803779 940.24845984 600.84527225 946 588.32275391 C951.08285553 577.25116284 956.07085495 566.1408223 961 555 C966.31679161 542.98387846 971.70872227 531.00565656 977.1875 519.0625 C983.31587161 505.70182577 989.36606934 492.30921836 995.36410522 478.88937378 C999.12345358 470.48196054 1002.90676157 462.08530953 1006.6875 453.6875 C1007.45760405 451.97680805 1008.22770494 450.26611469 1008.99780273 448.55541992 C1010.16558402 445.9613259 1011.33337823 443.36723771 1012.50123596 440.7731781 C1015.16385511 434.8586066 1017.82458242 428.94318682 1020.484375 423.02734375 C1021.96863416 419.7265104 1023.45302472 416.42573616 1024.9375 413.125 C1025.30602081 412.30554901 1025.67454163 411.48609802 1026.05422974 410.64181519 C1030.28878096 401.22725209 1034.53228064 391.81682869 1038.79296875 382.4140625 C1039.39109879 381.09398445 1039.39109879 381.09398445 1040.00131226 379.74723816 C1040.80698405 377.96917614 1041.61265829 376.19111523 1042.41833496 374.41305542 C1042.81653442 373.53424713 1043.21473389 372.65543884 1043.625 371.75 C1044.0223938 370.87304474 1044.4197876 369.99608948 1044.82922363 369.09255981 C1050.66934302 356.20050965 1056.44276926 343.28043166 1062.17193604 330.33874512 C1067.36026829 318.62423922 1072.65431134 306.96141726 1078.00183105 295.31881714 C1083.06514274 284.29094157 1088.03039526 273.22319909 1092.9375 262.125 C1098.70155179 249.08941869 1104.59581173 236.11964187 1110.57147217 223.17980957 C1116.17426144 211.04155076 1121.6509395 198.85244685 1127.05712891 186.62548828 C1131.95757819 175.54589755 1136.94317063 164.50906026 1142 153.5 C1147.4182454 141.70341006 1152.74774819 129.87142266 1158 118 C1163.25225471 106.12857077 1168.5821535 94.29677705 1174 82.5 C1180.09228964 69.23231385 1186.07641669 55.92000419 1191.98242188 42.56835938 C1198.27130873 28.35561077 1204.64203154 14.18316041 1211 0 C1264.79 0 1318.58 0 1374 0 C1374 446.82 1374 893.64 1374 1354 C1336.05 1354 1298.1 1354 1259 1354 C1258.67 953.05 1258.34 552.1 1258 139 C1252.72 150.88 1247.44 162.76 1242 175 C1234.4375 191.1875 1234.4375 191.1875 1230.7109375 199.0859375 C1226.92489376 207.1300357 1223.23136781 215.21440151 1219.5625 223.3125 C1219.25464569 223.99194672 1218.94679138 224.67139343 1218.62960815 225.37142944 C1217.37687326 228.13670785 1216.12428453 230.90205232 1214.87211609 233.66758728 C1211.2690568 241.62131621 1207.6340455 249.56039462 1204 257.5 C1198.81732302 268.82609495 1193.64984935 280.15894155 1188.5 291.5 C1183.01550097 303.57802788 1177.50874221 315.64570697 1171.98974609 327.70800781 C1167.14458577 338.29844533 1162.3153092 348.89595812 1157.5 359.5 C1152.36898195 370.79846227 1147.22333015 382.0901227 1142.0625 393.375 C1141.73105988 394.09975525 1141.39961975 394.8245105 1141.05813599 395.57122803 C1138.36927287 401.45052923 1135.67946729 407.32939914 1132.98962402 413.20825195 C1130.63847591 418.34696673 1128.28770025 423.48585165 1125.9375 428.625 C1125.60597931 429.34991638 1125.27445862 430.07483276 1124.93289185 430.82171631 C1120.10749298 441.37460596 1115.29818823 451.93471311 1110.5 462.5 C1105.36886644 473.79841005 1100.22333032 485.09012233 1095.0625 496.375 C1094.73105988 497.09975525 1094.39961975 497.8245105 1094.05813599 498.57122803 C1091.36927287 504.45052923 1088.67946729 510.32939914 1085.98962402 516.20825195 C1083.63847591 521.34696673 1081.28770025 526.48585165 1078.9375 531.625 C1078.60597931 532.34991638 1078.27445862 533.07483276 1077.93289185 533.82171631 C1072.79653876 545.05464622 1067.67944615 556.2962251 1062.57247925 567.5425415 C1057.39674916 578.9395281 1052.19762628 590.325681 1046.98974609 601.70800781 C1042.14458577 612.29844533 1037.3153092 622.89595812 1032.5 633.5 C1027.36898195 644.79846227 1022.22333015 656.0901227 1017.0625 667.375 C1016.73105988 668.09975525 1016.39961975 668.8245105 1016.05813599 669.57122803 C1013.36927287 675.45052923 1010.67946729 681.32939914 1007.98962402 687.20825195 C1005.63847591 692.34696673 1003.28770025 697.48585165 1000.9375 702.625 C1000.60597931 703.34991638 1000.27445862 704.07483276 999.93289185 704.82171631 C995.10749298 715.37460596 990.29818823 725.93471311 985.5 736.5 C980.36886644 747.79841005 975.22333032 759.09012233 970.0625 770.375 C969.73105988 771.09975525 969.39961975 771.8245105 969.05813599 772.57122803 C966.36927287 778.45052923 963.67946729 784.32939914 960.98962402 790.20825195 C958.63847591 795.34696673 956.28770025 800.48585165 953.9375 805.625 C953.60597931 806.34991638 953.27445862 807.07483276 952.93289185 807.82171631 C948.10749298 818.37460596 943.29818823 828.93471311 938.5 839.5 C933.36886644 850.79841005 928.22333032 862.09012233 923.0625 873.375 C922.73105988 874.09975525 922.39961975 874.8245105 922.05813599 875.57122803 C919.36927287 881.45052923 916.67946729 887.32939914 913.98962402 893.20825195 C911.63847591 898.34696673 909.28770025 903.48585165 906.9375 908.625 C906.60597931 909.34991638 906.27445862 910.07483276 905.93289185 910.82171631 C900.79653876 922.05464622 895.67944615 933.2962251 890.57247925 944.5425415 C885.39674916 955.9395281 880.19762628 967.325681 874.98974609 978.70800781 C870.14458577 989.29844533 865.3153092 999.89595812 860.5 1010.5 C855.36898195 1021.79846227 850.22333015 1033.0901227 845.0625 1044.375 C844.73105988 1045.09975525 844.39961975 1045.8245105 844.05813599 1046.57122803 C841.36927287 1052.45052923 838.67946729 1058.32939914 835.98962402 1064.20825195 C833.63847591 1069.34696673 831.28770025 1074.48585165 828.9375 1079.625 C828.60597931 1080.34991638 828.27445862 1081.07483276 827.93289185 1081.82171631 C823.10749298 1092.37460596 818.29818823 1102.93471311 813.5 1113.5 C808.36886644 1124.79841005 803.22333032 1136.09012233 798.0625 1147.375 C797.73105988 1148.09975525 797.39961975 1148.8245105 797.05813599 1149.57122803 C794.36927287 1155.45052923 791.67946729 1161.32939914 788.98962402 1167.20825195 C786.63847591 1172.34696673 784.28770025 1177.48585165 781.9375 1182.625 C781.60597931 1183.34991638 781.27445862 1184.07483276 780.93289185 1184.82171631 C775.79653876 1196.05464622 770.67944615 1207.2962251 765.57247925 1218.5425415 C760.39674916 1229.9395281 755.19762628 1241.325681 749.98974609 1252.70800781 C744.8358905 1263.97318418 739.70091368 1275.24678858 734.57980347 1286.52688599 C730.9925597 1294.42791445 727.39723768 1302.3251347 723.78515625 1310.21484375 C723.258116 1311.36603447 723.258116 1311.36603447 722.72042847 1312.54048157 C722.01561955 1314.0798408 721.31079582 1315.61919326 720.60595703 1317.15853882 C714.99752888 1329.40762015 709.42962168 1341.6702341 704 1354 C691.13 1354 678.26 1354 665 1354 C660.33830395 1344.6766079 655.71375511 1335.41720384 651.421875 1325.9296875 C650.95297852 1324.89473145 650.95297852 1324.89473145 650.47460938 1323.83886719 C650.15298828 1323.12891602 649.83136719 1322.41896484 649.5 1321.6875 C648.80760571 1320.1652217 648.11488947 1318.64308981 647.421875 1317.12109375 C645.98965346 1313.97500505 644.55878528 1310.82830635 643.12890625 1307.68115234 C640.09433884 1301.00493123 637.04273568 1294.33650836 633.9916687 1287.66781616 C632.32824734 1284.03152946 630.66618466 1280.39462178 629.00390625 1276.7578125 C626.66153864 1271.63355481 624.31839887 1266.50965127 621.97433472 1261.38616943 C614.82144355 1245.75182929 607.68119843 1230.11193731 600.57247925 1214.4574585 C595.7314234 1203.79742646 590.87112783 1193.14632192 586 1182.5 C580.81775678 1171.17370525 575.64996617 1159.84100733 570.5 1148.5 C565.36898195 1137.20153773 560.22333015 1125.9098773 555.0625 1114.625 C554.73105988 1113.90024475 554.39961975 1113.1754895 554.05813599 1112.42877197 C551.70594214 1107.2856109 549.35305128 1102.14276883 547 1097 C544.31201999 1091.12521949 541.62435076 1085.25029708 538.9375 1079.375 C538.60597931 1078.65008362 538.27445862 1077.92516724 537.93289185 1077.17828369 C532.79622642 1065.94467071 527.67917098 1054.70225265 522.57147217 1043.45544434 C517.74951308 1032.83871087 512.91202685 1022.22916908 508.0625 1011.625 C507.73105988 1010.90024475 507.39961975 1010.1754895 507.05813599 1009.42877197 C504.70594214 1004.2856109 502.35305128 999.14276883 500 994 C497.31201999 988.12521949 494.62435076 982.25029708 491.9375 976.375 C491.60597931 975.65008362 491.27445862 974.92516724 490.93289185 974.17828369 C485.79653876 962.94535378 480.67944615 951.7037749 475.57247925 940.4574585 C470.7314234 929.79742646 465.87112783 919.14632192 461 908.5 C455.81775678 897.17370525 450.64996617 885.84100733 445.5 874.5 C440.36898195 863.20153773 435.22333015 851.9098773 430.0625 840.625 C429.73105988 839.90024475 429.39961975 839.1754895 429.05813599 838.42877197 C426.70594214 833.2856109 424.35305128 828.14276883 422 823 C419.31201999 817.12521949 416.62435076 811.25029708 413.9375 805.375 C413.60597931 804.65008362 413.27445862 803.92516724 412.93289185 803.17828369 C407.79622642 791.94467071 402.67917098 780.70225265 397.57147217 769.45544434 C392.74951308 758.83871087 387.91202685 748.22916908 383.0625 737.625 C382.73105988 736.90024475 382.39961975 736.1754895 382.05813599 735.42877197 C379.70594214 730.2856109 377.35305128 725.14276883 375 720 C372.31201999 714.12521949 369.62435076 708.25029708 366.9375 702.375 C366.60597931 701.65008362 366.27445862 700.92516724 365.93289185 700.17828369 C360.79622642 688.94467071 355.67917098 677.70225265 350.57147217 666.45544434 C345.74951308 655.83871087 340.91202685 645.22916908 336.0625 634.625 C335.73105988 633.90024475 335.39961975 633.1754895 335.05813599 632.42877197 C332.70594214 627.2856109 330.35305128 622.14276883 328 617 C325.31201999 611.12521949 322.62435076 605.25029708 319.9375 599.375 C319.60597931 598.65008362 319.27445862 597.92516724 318.93289185 597.17828369 C313.79653876 585.94535378 308.67944615 574.7037749 303.57247925 563.4574585 C298.7314234 552.79742646 293.87112783 542.14632192 289 531.5 C283.81775678 520.17370525 278.64996617 508.84100733 273.5 497.5 C268.36898195 486.20153773 263.22333015 474.9098773 258.0625 463.625 C257.73105988 462.90024475 257.39961975 462.1754895 257.05813599 461.42877197 C254.70594214 456.2856109 252.35305128 451.14276883 250 446 C247.31201999 440.12521949 244.62435076 434.25029708 241.9375 428.375 C241.60597931 427.65008362 241.27445862 426.92516724 240.93289185 426.17828369 C235.79622642 414.94467071 230.67917098 403.70225265 225.57147217 392.45544434 C220.74951308 381.83871087 215.91202685 371.22916908 211.0625 360.625 C210.73105988 359.90024475 210.39961975 359.1754895 210.05813599 358.42877197 C207.70594214 353.2856109 205.35305128 348.14276883 203 343 C200.31201999 337.12521949 197.62435076 331.25029708 194.9375 325.375 C194.60597931 324.65008362 194.27445862 323.92516724 193.93289185 323.17828369 C188.79653876 311.94535378 183.67944615 300.7037749 178.57247925 289.4574585 C173.7314234 278.79742646 168.87112783 268.14632192 164 257.5 C158.50672705 245.49391963 153.03168862 233.47973765 147.57275391 221.45800781 C142.15038067 209.51794764 136.70465623 197.58867989 131.24414062 185.66601562 C124.13108047 170.12494042 117.07263281 154.55979219 110 139 C109.67 539.95 109.34 940.9 109 1354 C73.03 1354 37.06 1354 0 1354 C0 907.18 0 460.36 0 0 Z " fill="#FFFFFF" transform="translate(841,764)"/>
<path d="M0 0 C55.11 0 110.22 0 167 0 C174.86621315 15.7324263 174.86621315 15.7324263 177.515625 21.765625 C177.95575172 22.76271736 177.95575172 22.76271736 178.4047699 23.779953 C179.03103776 25.199194 179.65589481 26.61905832 180.27938843 28.03952026 C182.00239523 31.96351184 183.73779797 35.88201828 185.47265625 39.80078125 C185.83724442 40.62477921 186.20183258 41.44877716 186.57746887 42.29774475 C190.8922506 52.03593848 195.2894192 61.73671789 199.6875 71.4375 C201.29839679 74.99208797 202.90904597 78.54678807 204.51953125 82.1015625 C204.90614929 82.95486649 205.29276733 83.80817047 205.69110107 84.68733215 C210.65807256 95.65448104 215.57762772 106.64274519 220.49365234 117.6328125 C223.05595548 123.36041134 225.62141279 129.08659567 228.1875 134.8125 C228.71134277 135.98143799 229.23518555 137.15037598 229.77490234 138.35473633 C234.50570613 148.90806102 239.2525496 159.4541558 244 170 C251.85923034 187.45825901 259.69684721 204.92605847 267.52246094 222.39941406 C274.33362785 237.60624496 281.16010834 252.80606943 288 268 C295.85923034 285.45825901 303.69684721 302.92605847 311.52246094 320.39941406 C318.33362785 335.60624496 325.16010834 350.80606943 332 366 C339.85923034 383.45825901 347.69684721 400.92605847 355.52246094 418.39941406 C362.33362785 433.60624496 369.16010834 448.80606943 376 464 C383.85923034 481.45825901 391.69684721 498.92605847 399.52246094 516.39941406 C406.33362785 531.60624496 413.16010834 546.80606943 420 562 C427.85923034 579.45825901 435.69684721 596.92605847 443.52246094 614.39941406 C450.33362785 629.60624496 457.16010834 644.80606943 464 660 C471.85923034 677.45825901 479.69684721 694.92605847 487.52246094 712.39941406 C494.33362785 727.60624496 501.16010834 742.80606943 508 758 C515.85923034 775.45825901 523.69684721 792.92605847 531.52246094 810.39941406 C538.33362785 825.60624496 545.16010834 840.80606943 552 856 C559.85923034 873.45825901 567.69684721 890.92605847 575.52246094 908.39941406 C582.33362785 923.60624496 589.16010834 938.80606943 596 954 C603.85923034 971.45825901 611.69684721 988.92605847 619.52246094 1006.39941406 C626.33362785 1021.60624496 633.16010834 1036.80606943 640 1052 C646.83262651 1067.17779198 653.65176638 1082.36150839 660.45556641 1097.55224609 C663.13574691 1103.53541224 665.81800639 1109.51764644 668.5 1115.5 C669.56641561 1117.87890205 670.63282184 1120.25780832 671.69921875 1122.63671875 C672.50045166 1124.42408447 672.50045166 1124.42408447 673.31787109 1126.24755859 C678.21191406 1137.16503906 683.10595703 1148.08251953 688 1159 C693.146395 1148.92784224 697.98745266 1138.77168667 702.52539062 1128.41162109 C704.24712615 1124.48251022 705.9829254 1120.55962124 707.71875 1116.63671875 C708.07412842 1115.83317963 708.42950684 1115.0296405 708.7956543 1114.20175171 C712.45901485 1105.93496904 716.22378414 1097.71568599 720 1089.5 C725.41903774 1077.70378109 730.74775384 1065.8714099 736 1054 C741.57546308 1041.39803779 747.24845984 1028.84527225 753 1016.32275391 C758.08285469 1005.25116467 763.07096532 994.1408699 768 983 C773.57576496 970.39735548 779.24876522 957.84376011 785.00100708 945.32073975 C790.06458197 934.29221899 795.0301138 923.22383565 799.9375 912.125 C805.70155179 899.08941869 811.59581173 886.11964187 817.57147217 873.17980957 C823.17426144 861.04155076 828.6509395 848.85244685 834.05712891 836.62548828 C838.95757819 825.54589755 843.94317063 814.50906026 849 803.5 C854.4182454 791.70341006 859.74774819 779.87142266 865 768 C870.57546308 755.39803779 876.24845984 742.84527225 882 730.32275391 C887.08285469 719.25116467 892.07096532 708.1408699 897 697 C902.57546308 684.39803779 908.24845984 671.84527225 914 659.32275391 C919.08285469 648.25116467 924.07096532 637.1408699 929 626 C934.57546308 613.39803779 940.24845984 600.84527225 946 588.32275391 C951.08285469 577.25116467 956.07096532 566.1408699 961 555 C966.57546308 542.39803779 972.24845984 529.84527225 978 517.32275391 C983.08285469 506.25116467 988.07096532 495.1408699 993 484 C998.57546308 471.39803779 1004.24845984 458.84527225 1010 446.32275391 C1015.08285553 435.25116284 1020.07085495 424.1408223 1025 413 C1030.31679161 400.98387846 1035.70872227 389.00565656 1041.1875 377.0625 C1047.31587161 363.70182577 1053.36606934 350.30921836 1059.36410522 336.88937378 C1063.12345358 328.48196054 1066.90676157 320.08530953 1070.6875 311.6875 C1071.45760405 309.97680805 1072.22770494 308.26611469 1072.99780273 306.55541992 C1074.16558402 303.9613259 1075.33337823 301.36723771 1076.50123596 298.7731781 C1079.16385511 292.8586066 1081.82458242 286.94318682 1084.484375 281.02734375 C1085.96863416 277.7265104 1087.45302472 274.42573616 1088.9375 271.125 C1089.30602081 270.30554901 1089.67454163 269.48609802 1090.05422974 268.64181519 C1094.28878096 259.22725209 1098.53228064 249.81682869 1102.79296875 240.4140625 C1103.39109879 239.09398445 1103.39109879 239.09398445 1104.00131226 237.74723816 C1104.80698405 235.96917614 1105.61265829 234.19111523 1106.41833496 232.41305542 C1106.81653442 231.53424713 1107.21473389 230.65543884 1107.625 229.75 C1108.0223938 228.87304474 1108.4197876 227.99608948 1108.82922363 227.09255981 C1114.66934302 214.20050965 1120.44276926 201.28043166 1126.17193604 188.33874512 C1131.36026829 176.62423922 1136.65431134 164.96141726 1142.00183105 153.31881714 C1147.06514274 142.29094157 1152.03039526 131.22319909 1156.9375 120.125 C1162.35694738 107.86875221 1167.88183717 95.66641401 1173.5 83.5 C1179.7921194 69.87195698 1185.96519727 56.19610271 1192.03320312 42.46679688 C1198.30161018 28.28614587 1204.65732623 14.14904148 1211 0 C1264.79 0 1318.58 0 1374 0 C1374 446.82 1374 893.64 1374 1354 C1336.05 1354 1298.1 1354 1259 1354 C1258.67 953.05 1258.34 552.1 1258 139 C1252.72 150.88 1247.44 162.76 1242 175 C1234.4375 191.1875 1234.4375 191.1875 1230.7109375 199.0859375 C1226.92489376 207.1300357 1223.23136781 215.21440151 1219.5625 223.3125 C1219.25464569 223.99194672 1218.94679138 224.67139343 1218.62960815 225.37142944 C1217.37687326 228.13670785 1216.12428453 230.90205232 1214.87211609 233.66758728 C1211.2690568 241.62131621 1207.6340455 249.56039462 1204 257.5 C1198.81732302 268.82609495 1193.64984935 280.15894155 1188.5 291.5 C1183.01550097 303.57802788 1177.50874221 315.64570697 1171.98974609 327.70800781 C1167.14458577 338.29844533 1162.3153092 348.89595812 1157.5 359.5 C1152.36898195 370.79846227 1147.22333015 382.0901227 1142.0625 393.375 C1141.73105988 394.09975525 1141.39961975 394.8245105 1141.05813599 395.57122803 C1138.36927287 401.45052923 1135.67946729 407.32939914 1132.98962402 413.20825195 C1130.63847591 418.34696673 1128.28770025 423.48585165 1125.9375 428.625 C1125.60597931 429.34991638 1125.27445862 430.07483276 1124.93289185 430.82171631 C1120.10749298 441.37460596 1115.29818823 451.93471311 1110.5 462.5 C1105.36886644 473.79841005 1100.22333032 485.09012233 1095.0625 496.375 C1094.73105988 497.09975525 1094.39961975 497.8245105 1094.05813599 498.57122803 C1091.36927287 504.45052923 1088.67946729 510.32939914 1085.98962402 516.20825195 C1083.63847591 521.34696673 1081.28770025 526.48585165 1078.9375 531.625 C1078.60597931 532.34991638 1078.27445862 533.07483276 1077.93289185 533.82171631 C1073.10749298 544.37460596 1068.29818823 554.93471311 1063.5 565.5 C1058.36886644 576.79841005 1053.22333032 588.09012233 1048.0625 599.375 C1047.73105988 600.09975525 1047.39961975 600.8245105 1047.05813599 601.57122803 C1044.36927287 607.45052923 1041.67946729 613.32939914 1038.98962402 619.20825195 C1036.63847591 624.34696673 1034.28770025 629.48585165 1031.9375 634.625 C1031.60597931 635.34991638 1031.27445862 636.07483276 1030.93289185 636.82171631 C1025.79653876 648.05464622 1020.67944615 659.2962251 1015.57247925 670.5425415 C1010.39674916 681.9395281 1005.19762628 693.325681 999.98974609 704.70800781 C995.14458577 715.29844533 990.3153092 725.89595812 985.5 736.5 C980.36898195 747.79846227 975.22333015 759.0901227 970.0625 770.375 C969.73105988 771.09975525 969.39961975 771.8245105 969.05813599 772.57122803 C966.36927287 778.45052923 963.67946729 784.32939914 960.98962402 790.20825195 C958.63847591 795.34696673 956.28770025 800.48585165 953.9375 805.625 C953.60597931 806.34991638 953.27445862 807.07483276 952.93289185 807.82171631 C948.10749298 818.37460596 943.29818823 828.93471311 938.5 839.5 C933.36886644 850.79841005 928.22333032 862.09012233 923.0625 873.375 C922.73105988 874.09975525 922.39961975 874.8245105 922.05813599 875.57122803 C919.36927287 881.45052923 916.67946729 887.32939914 913.98962402 893.20825195 C911.63847591 898.34696673 909.28770025 903.48585165 906.9375 908.625 C906.60597931 909.34991638 906.27445862 910.07483276 905.93289185 910.82171631 C900.79653876 922.05464622 895.67944615 933.2962251 890.57247925 944.5425415 C885.39674916 955.9395281 880.19762628 967.325681 874.98974609 978.70800781 C870.14458577 989.29844533 865.3153092 999.89595812 860.5 1010.5 C855.36898195 1021.79846227 850.22333015 1033.0901227 845.0625 1044.375 C844.73105988 1045.09975525 844.39961975 1045.8245105 844.05813599 1046.57122803 C841.36927287 1052.45052923 838.67946729 1058.32939914 835.98962402 1064.20825195 C833.63847591 1069.34696673 831.28770025 1074.48585165 828.9375 1079.625 C828.60597931 1080.34991638 828.27445862 1081.07483276 827.93289185 1081.82171631 C823.10749298 1092.37460596 818.29818823 1102.93471311 813.5 1113.5 C808.36886644 1124.79841005 803.22333032 1136.09012233 798.0625 1147.375 C797.73105988 1148.09975525 797.39961975 1148.8245105 797.05813599 1149.57122803 C794.36927287 1155.45052923 791.67946729 1161.32939914 788.98962402 1167.20825195 C786.63847591 1172.34696673 784.28770025 1177.48585165 781.9375 1182.625 C781.60597931 1183.34991638 781.27445862 1184.07483276 780.93289185 1184.82171631 C776.10749298 1195.37460596 771.29818823 1205.93471311 766.5 1216.5 C761.36886644 1227.79841005 756.22333032 1239.09012233 751.0625 1250.375 C750.73105988 1251.09975525 750.39961975 1251.8245105 750.05813599 1252.57122803 C747.36927287 1258.45052923 744.67946729 1264.32939914 741.98962402 1270.20825195 C722.80766498 1312.01971243 722.80766498 1312.01971243 704 1354 C691.13 1354 678.26 1354 665 1354 C660.33822291 1344.67644582 655.71362987 1335.4168603 651.42163086 1325.92919922 C651.10902313 1325.23920837 650.79641541 1324.54921753 650.47433472 1323.83831787 C650.15280426 1323.12854797 649.8312738 1322.41877808 649.5 1321.6875 C648.80833422 1320.16668834 648.11635053 1318.64602123 647.42407227 1317.12548828 C645.99262471 1313.9808456 644.56251658 1310.83559898 643.13330078 1307.68994141 C641.07348948 1303.15868463 639.00514 1298.6313709 636.93359375 1294.10546875 C636.43746078 1293.02150063 636.43746078 1293.02150063 635.93130493 1291.91563416 C635.2658286 1290.46178261 634.60033184 1289.00794042 633.93481445 1287.55410767 C628.12679483 1274.86372697 622.34243388 1262.16271282 616.57147217 1249.45544434 C611.74951308 1238.83871087 606.91202685 1228.22916908 602.0625 1217.625 C601.73105988 1216.90024475 601.39961975 1216.1754895 601.05813599 1215.42877197 C598.70594214 1210.2856109 596.35305128 1205.14276883 594 1200 C591.31201999 1194.12521949 588.62435076 1188.25029708 585.9375 1182.375 C585.60597931 1181.65008362 585.27445862 1180.92516724 584.93289185 1180.17828369 C579.79622642 1168.94467071 574.67917098 1157.70225265 569.57147217 1146.45544434 C564.74951308 1135.83871087 559.91202685 1125.22916908 555.0625 1114.625 C554.73105988 1113.90024475 554.39961975 1113.1754895 554.05813599 1112.42877197 C551.70594214 1107.2856109 549.35305128 1102.14276883 547 1097 C544.31201999 1091.12521949 541.62435076 1085.25029708 538.9375 1079.375 C538.60597931 1078.65008362 538.27445862 1077.92516724 537.93289185 1077.17828369 C532.79653876 1065.94535378 527.67944615 1054.7037749 522.57247925 1043.4574585 C517.7314234 1032.79742646 512.87112783 1022.14632192 508 1011.5 C502.81775678 1000.17370525 497.64996617 988.84100733 492.5 977.5 C487.36898195 966.20153773 482.22333015 954.9098773 477.0625 943.625 C476.73105988 942.90024475 476.39961975 942.1754895 476.05813599 941.42877197 C473.70594214 936.2856109 471.35305128 931.14276883 469 926 C466.31201999 920.12521949 463.62435076 914.25029708 460.9375 908.375 C460.60597931 907.65008362 460.27445862 906.92516724 459.93289185 906.17828369 C454.79622642 894.94467071 449.67917098 883.70225265 444.57147217 872.45544434 C439.74951308 861.83871087 434.91202685 851.22916908 430.0625 840.625 C429.73105988 839.90024475 429.39961975 839.1754895 429.05813599 838.42877197 C426.70594214 833.2856109 424.35305128 828.14276883 422 823 C419.31201999 817.12521949 416.62435076 811.25029708 413.9375 805.375 C413.60597931 804.65008362 413.27445862 803.92516724 412.93289185 803.17828369 C407.79622642 791.94467071 402.67917098 780.70225265 397.57147217 769.45544434 C392.74951308 758.83871087 387.91202685 748.22916908 383.0625 737.625 C382.73105988 736.90024475 382.39961975 736.1754895 382.05813599 735.42877197 C379.70594214 730.2856109 377.35305128 725.14276883 375 720 C372.31201999 714.12521949 369.62435076 708.25029708 366.9375 702.375 C366.60597931 701.65008362 366.27445862 700.92516724 365.93289185 700.17828369 C360.79653876 688.94535378 355.67944615 677.7037749 350.57247925 666.4574585 C345.7314234 655.79742646 340.87112783 645.14632192 336 634.5 C330.81775678 623.17370525 325.64996617 611.84100733 320.5 600.5 C315.36898195 589.20153773 310.22333015 577.9098773 305.0625 566.625 C304.73105988 565.90024475 304.39961975 565.1754895 304.05813599 564.42877197 C301.70594214 559.2856109 299.35305128 554.14276883 297 549 C294.31201999 543.12521949 291.62435076 537.25029708 288.9375 531.375 C288.60597931 530.65008362 288.27445862 529.92516724 287.93289185 529.17828369 C282.79622642 517.94467071 277.67917098 506.70225265 272.57147217 495.45544434 C267.74951308 484.83871087 262.91202685 474.22916908 258.0625 463.625 C257.73105988 462.90024475 257.39961975 462.1754895 257.05813599 461.42877197 C254.70594214 456.2856109 252.35305128 451.14276883 250 446 C247.31201999 440.12521949 244.62435076 434.25029708 241.9375 428.375 C241.60597931 427.65008362 241.27445862 426.92516724 240.93289185 426.17828369 C235.79653876 414.94535378 230.67944615 403.7037749 225.57247925 392.4574585 C220.7314234 381.79742646 215.87112783 371.14632192 211 360.5 C205.81775678 349.17370525 200.64996617 337.84100733 195.5 326.5 C190.36898195 315.20153773 185.22333015 303.9098773 180.0625 292.625 C179.73105988 291.90024475 179.39961975 291.1754895 179.05813599 290.42877197 C176.70594214 285.2856109 174.35305128 280.14276883 172 275 C169.31201999 269.12521949 166.62435076 263.25029708 163.9375 257.375 C163.60597931 256.65008362 163.27445862 255.92516724 162.93289185 255.17828369 C157.79653876 243.94535378 152.67944615 232.7037749 147.57247925 221.4574585 C142.15020412 209.51757835 136.7045711 197.58849399 131.24414062 185.66601562 C124.13108047 170.12494042 117.07263281 154.55979219 110 139 C109.67 539.95 109.34 940.9 109 1354 C73.03 1354 37.06 1354 0 1354 C0 907.18 0 460.36 0 0 Z " fill="#FFFFFF" transform="translate(841,2296)"/>
<path d="M0 0 C1.62760254 0.81186768 1.62760254 0.81186768 3.28808594 1.64013672 C40.81259123 20.44813701 76.29893495 43.69169196 109 70 C109.63115723 70.50499023 110.26231445 71.00998047 110.91259766 71.53027344 C127.37854705 84.71439157 143.61223665 98.3514907 158.39453125 113.42578125 C160.20075468 115.19684705 162.08486228 116.84750974 164 118.5 C169.85851737 123.56835125 175.06729539 129.03331617 180.1171875 134.8984375 C182.16722274 137.18665111 184.31295092 139.34260582 186.5 141.5 C190.54833061 145.50750711 194.3064655 149.66664063 198 154 C199.29164063 155.49273438 199.29164063 155.49273438 200.609375 157.015625 C212.93910961 171.27976261 224.85324249 185.78996408 236 201 C236.50321777 201.68078613 237.00643555 202.36157227 237.52490234 203.06298828 C263.36540014 238.04090761 285.41908597 275.20813642 305 314 C305.56831543 315.12051758 306.13663086 316.24103516 306.72216797 317.39550781 C346.04747465 395.37293475 370.10291389 481.55405366 384 609 C384.09643799 610.23669434 384.19287598 611.47338867 384.29223633 612.74755859 C385.34919973 627.59058612 385.18726895 642.48964462 385.18530273 657.36181641 C385.18522212 660.51226626 385.19207301 663.66256867 385.20581055 666.81298828 C385.29789094 688.29313087 384.69477031 709.58246064 383 731 C382.88998154 732.39910614 382.88998154 732.39910614 382.77774048 733.82647705 C382.36095968 738.97592744 381.86838352 744.11380231 381.3125 749.25 C381.19036636 750.39376602 381.19036636 750.39376602 381.06576538 751.56063843 C373.07841645 825.40359039 354.71804474 898.47421277 326 967 C325.53529297 968.10891602 325.07058594 969.21783203 324.59179688 970.36035156 C298.12121813 1032.95660503 263.60027401 1091.99536312 221 1145 C220.25492188 1145.928125 219.50984375 1146.85625 218.7421875 1147.8125 C210.52363758 1157.94576585 202.03408824 1167.87111562 193.24780273 1177.51660156 C191.89029548 1179.01639127 190.54155989 1180.52427991 189.20996094 1182.04711914 C182.22205714 1189.99367487 174.72423752 1197.42699068 167.23413086 1204.89624023 C164.9355279 1207.18946748 162.6423397 1209.4880124 160.34960938 1211.78710938 C158.86750813 1213.26855 157.3850968 1214.7496805 155.90234375 1216.23046875 C155.22815903 1216.9066777 154.5539743 1217.58288666 153.85935974 1218.27958679 C149.93941611 1222.18055146 145.91423243 1225.90383894 141.72433472 1229.51377869 C139.50644327 1231.42540147 137.34847509 1233.39946761 135.1875 1235.375 C130.92254692 1239.21928245 126.5513915 1242.89526905 122.0859375 1246.50390625 C119.85060183 1248.31198156 117.62811795 1250.13112763 115.4140625 1251.96484375 C100.0175414 1264.67808868 83.9146106 1276.17515495 67.3125 1287.25 C66.62374786 1287.70986298 65.93499573 1288.16972595 65.22537231 1288.64352417 C55.26453701 1295.28294384 45.1814048 1301.70446547 35 1308 C33.71337494 1304.14012483 34.36638662 1300.95632919 34.92578125 1297.01953125 C35.14683107 1295.37532837 35.36785884 1293.73112252 35.58886719 1292.08691406 C35.76645569 1290.79485046 35.76645569 1290.79485046 35.94763184 1289.47668457 C37.62067321 1277.26051594 39.26185102 1265.04358141 40.25 1252.75 C40.31743408 1251.91702393 40.38486816 1251.08404785 40.4543457 1250.22583008 C40.65927484 1247.48493649 40.83298122 1244.7434782 41 1242 C41.04096802 1241.36311249 41.08193604 1240.72622498 41.12414551 1240.07003784 C43.42498421 1203.82452738 42.41572041 1167.46969662 39.28509521 1131.31408691 C38.97232798 1127.67832681 38.66872423 1124.04186005 38.36572266 1120.40527344 C34.08776932 1069.27611251 26.68216256 1019.40819648 16.83691406 969.04833984 C16.46677206 967.14030429 16.09665398 965.2322641 15.7265625 963.32421875 C15.55264984 962.44401566 15.37873718 961.56381256 15.19955444 960.65693665 C14.96276474 959.43202766 14.96276474 959.43202766 14.72119141 958.18237305 C14.58145905 957.46873093 14.44172668 956.75508881 14.29776001 956.01982117 C14 954 14 954 14 950 C15.7644043 950.15039062 15.7644043 950.15039062 18 951 C19.87036133 953.39648438 19.87036133 953.39648438 21.76953125 956.59375 C22.11345413 957.17257935 22.45737701 957.75140869 22.8117218 958.34777832 C26.81687015 965.20724978 30.27174459 972.33435866 33.6875 979.5 C34.38578075 980.95436626 35.08410516 982.40871156 35.7824707 983.86303711 C65.53291949 1046.01722485 87.82755224 1107.47945845 96.39880371 1176.12988281 C97.16787151 1182.27722218 97.95117262 1188.42276017 98.73530006 1194.56819344 C99.00315019 1196.67858218 99.26667648 1198.78947323 99.52946472 1200.90049744 C100.46685644 1208.31671771 101.55795562 1215.66431529 103 1223 C104.72970062 1218.86368003 105.69084082 1214.87708158 106.40234375 1210.46484375 C106.52475937 1209.72758057 106.64717499 1208.99031738 106.77330017 1208.23071289 C115.44086842 1155.33009392 116.21660167 1102.35522861 111 1049 C110.89108429 1047.87933136 110.89108429 1047.87933136 110.77996826 1046.73602295 C108.48197893 1023.36165541 105.03157957 1000.13435139 101 977 C100.86847534 976.24404541 100.73695068 975.48809082 100.60144043 974.70922852 C88.60004461 906.28756282 72.04752495 831.84827334 42 769 C41.54689453 768.04303223 41.09378906 767.08606445 40.62695312 766.10009766 C29.86571196 743.52584793 17.47015301 721.76096224 2.75390625 701.5234375 C2.20299316 700.76023193 1.65208008 699.99702637 1.08447266 699.21069336 C0.01531865 697.73501993 -1.06390793 696.26657283 -2.15478516 694.80688477 C-4.97524053 690.92373711 -6.84739209 687.96339073 -7 683 C-4.99098258 678.78106343 -2.25983829 677.52452248 1.9375 675.9765625 C7.8099743 673.91936916 13.60388377 672.86333405 19.75 672 C21.97149486 671.6623828 24.1928464 671.32382139 26.4140625 670.984375 C28.60934841 670.65607213 30.80465988 670.32794013 33 670 C63.0598236 665.47530161 93.9837442 658.20833754 121.625 645.3125 C122.3890918 644.95615479 123.15318359 644.59980957 123.94042969 644.23266602 C128.52594689 641.9901554 132.35452642 639.59990516 136 636 C136.50196294 632.28926495 136.50196294 632.28926495 136 629 C134.33355572 628.33277763 132.66681728 627.66629 131 627 C129.84113281 626.53464844 128.68226563 626.06929687 127.48828125 625.58984375 C119.5603625 622.44107096 111.59572234 619.4878268 103.51489258 616.75244141 C68.79767201 604.98898667 36.35155885 587.92283343 4.44873047 570.00634766 C1.25360488 568.21362183 -1.95164386 566.44007438 -5.16259766 564.6758728 C-6.41850475 563.98120625 -7.67072353 563.27982475 -8.91894531 562.57144165 C-10.65672597 561.58575458 -12.40821966 560.62436392 -14.16015625 559.6640625 C-15.16699463 559.10154785 -16.17383301 558.5390332 -17.21118164 557.95947266 C-19.9613445 556.72203518 -19.9613445 556.72203518 -22.6706543 557.72021484 C-25.09670205 559.05312988 -27.48710223 560.43657976 -29.85644531 561.86791992 C-85.05977169 594.87176526 -160.10159586 599.25111381 -221.53125 584.46484375 C-241.30313589 579.4808954 -260.04486278 572.67094882 -278 563 C-278.66338379 562.64824707 -279.32676758 562.29649414 -280.01025391 561.93408203 C-293.70878514 554.6406549 -306.06903099 545.93056702 -318 536 C-318.51498047 535.57525391 -319.02996094 535.15050781 -319.56054688 534.71289062 C-332.55046886 523.96626906 -344.78428312 512.46532335 -355 499 C-355.79792969 497.95714844 -356.59585938 496.91429687 -357.41796875 495.83984375 C-384.24604768 460.00810685 -393.17255242 418.00190891 -387 374 C-383.72912959 353.50299593 -377.94235686 334.25283752 -368 316 C-366.35 316.66 -364.7 317.32 -363 318 C-364.37306317 322.4557246 -366.16306275 326.46052612 -368.25 330.625 C-377.82907738 350.6850401 -382.2995551 373.85985038 -383 396 C-383.03996094 396.98871094 -383.07992187 397.97742187 -383.12109375 398.99609375 C-383.91752449 436.52203631 -370.12033552 471.54539729 -346 500 C-345.29617187 500.83402344 -344.59234375 501.66804688 -343.8671875 502.52734375 C-333.21992165 514.69275587 -321.74188497 526.10778474 -308.72558594 535.71435547 C-306.99554596 537.00331847 -305.29773131 538.32703561 -303.6015625 539.66015625 C-251.29317756 580.19000976 -181.86668841 591.0134099 -117.57177734 583.60498047 C-87.55725608 579.74756694 -58.36861088 571.13591629 -32.1796875 555.765625 C-29 554 -29 554 -27 554 C-29.19857858 551.60995753 -31.38175075 550.07157593 -34.21875 548.50390625 C-35.05921875 548.03388184 -35.8996875 547.56385742 -36.765625 547.07958984 C-38.11914062 546.32863037 -38.11914062 546.32863037 -39.5 545.5625 C-129.09175487 495.02792418 -153.35568454 386.49669056 -194.91825867 269.96508789 C-236.40973702 148.99683325 -236.40973702 148.99683325 -316 51 C-316.97839844 50.13375 -317.95679687 49.2675 -318.96484375 48.375 C-332.53117401 36.38489877 -347.15295219 25.77350193 -363 17 C-363.804375 16.55333984 -364.60875 16.10667969 -365.4375 15.64648438 C-400.41693348 -3.58699877 -438.66325645 -19.49888137 -479.1875 -19.3125 C-481.07770874 -19.30621582 -481.07770874 -19.30621582 -483.00610352 -19.29980469 C-497.34960702 -19.12755437 -510.68665148 -17.10670306 -524.3125 -12.671875 C-527 -12 -527 -12 -530 -13 C-452.51093187 -46.69945923 -371.7236099 -64.79512335 0 0 Z " fill="#FEFEFE" transform="translate(3397,800)"/>
<path d="M0 0 C38.61 0 77.22 0 117 0 C117 207.9 117 415.8 117 630 C404.43 630 691.86 630 988 630 C988 422.1 988 214.2 988 0 C1026.61 0 1065.22 0 1105 0 C1105 446.82 1105 893.64 1105 1354 C1066.39 1354 1027.78 1354 988 1354 C988 1144.78 988 935.56 988 720 C700.57 720 413.14 720 117 720 C117 929.22 117 1138.44 117 1354 C78.39 1354 39.78 1354 0 1354 C0 907.18 0 460.36 0 0 Z " fill="#FFFFFF" transform="translate(2554,2296)"/>
<path d="M0 0 C4.64332107 4.59574606 6.54527051 9.39454723 6.875 15.875 C6.62019031 21.07311766 5.45733817 25.73800278 1.8828125 29.640625 C-4.32939762 35.13296527 -8.902173 36.38867237 -17.23046875 36.2578125 C-23.28945646 35.54839697 -26.78059908 32.6848957 -30.875 28.375 C-34.59419653 22.65315918 -35.31409216 17.62475145 -34.5 10.875 C-32.68608339 4.71637293 -28.90398963 0.26356727 -23.5 -3.125 C-15.76710223 -6.82761631 -6.57979824 -5.28560998 0 0 Z " fill="#F5F5F5" transform="translate(2887.5,877.125)"/>
<path d="M0 0 C0.66 0.33 1.32 0.66 2 1 C-0.97 3.97 -3.94 6.94 -7 10 C-7.66 9.67 -8.32 9.34 -9 9 C-6.21000549 5.51250686 -3.74764169 2.49842779 0 0 Z " fill="#B4B4B5" transform="translate(2742,954)"/>
<path d="M0 0 C0.66 0.33 1.32 0.66 2 1 C-2.455 4.465 -2.455 4.465 -7 8 C-7.33 7.01 -7.66 6.02 -8 5 C-6.71475739 4.13619741 -5.42157581 3.28419631 -4.125 2.4375 C-3.04605469 1.72400391 -3.04605469 1.72400391 -1.9453125 0.99609375 C-1.30335938 0.66738281 -0.66140625 0.33867188 0 0 Z " fill="#B2B3B4" transform="translate(2825,808)"/>
<path d="M0 0 C2 1 2 1 2 1 Z " fill="#3E3E40" transform="translate(2865,788)"/>
<path d="" fill="#68696B" transform="translate(0,0)"/>
<path d="" fill="#3A3A3C" transform="translate(0,0)"/>
<path d="" fill="#212122" transform="translate(0,0)"/>
<path d="" fill="#262627" transform="translate(0,0)"/>
</svg>
